<svg id="Layer_1" data-name="Layer 1" xmlns="http://www.w3.org/2000/svg" viewBox="0 0 279 249.39"><defs><style>.cls-1{fill:#fff;}.cls-2,.cls-4{fill:none;stroke:#fff;}.cls-2{stroke-linecap:round;stroke-linejoin:round;stroke-width:4px;}.cls-3{fill:#d08155;}.cls-4{stroke-linecap:square;stroke-miterlimit:10;stroke-width:3px;}</style></defs><polygon class="cls-1" points="279 190.39 166.5 240.39 166.5 87.39 279 37.39 279 190.39"/><polygon class="cls-1" points="0 190.39 112.5 240.39 112.5 87.39 0 37.39 0 190.39"/><path class="cls-1" d="M168.53,262A44.32,44.32,0,0,1,144,270c-14.06,0-25-8-25-8V109s11.35,8,25,8,24.53-8,24.53-8Z" transform="translate(-4.5 -20.61)"/><path class="cls-2" d="M143.67,111.24c-11.6,0-20.77-5.17-20.33-6.86A21,21,0,0,1,164,104.3C164.43,106,155.26,111.24,143.67,111.24Z" transform="translate(-4.5 -20.61)"/><path class="cls-3" d="M203.41,158.44c0-5.51-.49-23.56-.64-26.19-.48-8.46-2.58-7.87-8.61-5.29l-4.07,1.73c-.78.33-1.05.15-1.05-.6l0-3.72a1.41,1.41,0,0,1,1-1.49c2.1-.89,8-3,17.44-7,4.2-1.79,12.06-5.59,16.65-7.55,10.22-4.36,18.62-6.9,23.24-5.88,7.52,1.43,10.2,7.16,10.29,16,.14,14.74-5.6,20.92-15.76,31.39l.39.13c12.76-.66,21.37,4.64,21.52,20.42.07,7.59-3.89,19.75-9.88,26.64-5.47,6.22-12.93,10.9-25,16-9.05,3.86-14.16,5.59-19.67,7.94-6.56,2.8-14.29,6.54-16.78,7.61-1.57.67-1.84.48-1.84-.11l0-3.88c0-.74.25-1.15,1.17-1.54l6.29-2.68c4.07-1.74,4.71-3.81,5.19-8.79.36-3.6.43-23.36.32-35.57Zm11.59.89a69.79,69.79,0,0,0,6.95-2.67c7.48-3.19,13.36-7,16.49-10.92a33.66,33.66,0,0,0,7.17-21c-.06-5.66-1.69-11-6.57-12.9-4.76-1.71-11.33-.25-18,2.6a25.5,25.5,0,0,0-4.33,2,4.44,4.44,0,0,0-1.81,3.47c-.1,3-.11,16,0,28.4Zm.14,14.29.19,20.55c.13,13.7,3.08,18.57,14,13.93s21.05-15,20.88-32.68c-.12-12.06-5.56-17.66-13.33-17.78-5.4-.09-11.56,2.39-17.6,5l-4.19,1.79Z" transform="translate(-4.5 -20.61)"/><path class="cls-3" d="M84.42,176c-.11,12.21,0,32,.32,35.57.48,5,1.12,7,5.19,8.79l6.29,2.68c.92.39,1.18.8,1.17,1.54l0,3.88c0,.59-.27.78-1.84.11C93,227.51,85.29,223.77,78.73,221c-5.51-2.35-10.62-4.08-19.67-7.94-12.06-5.14-19.52-9.82-25-16-6-6.89-9.95-19.05-9.88-26.64.15-15.78,8.76-21.08,21.52-20.42l.39-.13c-10.16-10.47-15.9-16.65-15.76-31.39.09-8.79,2.77-14.52,10.29-16,4.62-1,13,1.52,23.24,5.88,4.59,2,12.45,5.76,16.65,7.55,9.44,4,15.34,6.1,17.44,7a1.41,1.41,0,0,1,1,1.49l0,3.72c0,.75-.27.93-1,.6L93.84,127c-6-2.58-8.13-3.17-8.61,5.29-.15,2.63-.59,20.68-.64,26.19ZM73.1,148.31c.12-12.36.11-25.37,0-28.4a4.44,4.44,0,0,0-1.81-3.47,25.5,25.5,0,0,0-4.33-2c-6.68-2.85-13.25-4.31-18-2.6-4.88,2-6.51,7.24-6.57,12.9a33.66,33.66,0,0,0,7.17,21c3.13,3.88,9,7.73,16.49,10.92a69.79,69.79,0,0,0,7,2.67ZM73,164.39l-4.19-1.79c-6-2.57-12.2-5-17.6-5-7.77.12-13.21,5.72-13.33,17.78-.17,17.72,9.87,28,20.88,32.68s13.83-.23,14-13.93l.19-20.55Z" transform="translate(-4.5 -20.61)"/><polyline class="cls-4" points="274.73 42.97 269.7 34.12 259.66 35.77 254.35 27.09 244.38 29.16 238.67 20.73 228.82 23.29 222.68 15.18 212.99 18.26 206.4 10.5 196.9 14.13 189.87 6.78 180.6 10.98 173.13 4.06 164.14 8.83 156.24 2.41 147.57 7.74 139.28 1.84 131.01 7.74 122.37 2.41 114.52 8.86 105.54 4.12 98.13 11.06 88.87 6.9 81.9 14.28 72.4 10.68 65.87 18.46 56.19 15.4 50.09 23.52 40.26 20.96 34.57 29.37 24.64 27.27 19.31 35.91 9.31 34.19 4.24 42.99"/></svg>
